PathFileType	4	(X/Y/Z)	pose_F01_0-79.trc
DataRate	CameraRate	NumFrames	NumMarkers	Units	OrigDataRate	OrigDataStartFrame	OrigNumFrames
30	30	8	21	m	30	69	79
Frame#	Time	CHip			RHip			RKnee			RAnkle			RBigToe			RSmallToe			RHeel			LHip			LKnee			LAnkle			LBigToe			LSmallToe			LHeel			Neck			Nose			RShoulder			RElbow			RWrist			LShoulder			LElbow			LWrist			
		X1	Y1	Z1	X2	Y2	Z2	X3	Y3	Z3	X4	Y4	Z4	X5	Y5	Z5	X6	Y6	Z6	X7	Y7	Z7	X8	Y8	Z8	X9	Y9	Z9	X10	Y10	Z10	X11	Y11	Z11	X12	Y12	Z12	X13	Y13	Z13	X14	Y14	Z14	X15	Y15	Z15	X16	Y16	Z16	X17	Y17	Z17	X18	Y18	Z18	X19	Y19	Z19	X20	Y20	Z20	X21	Y21	Z21	
69	2.3	-0.27718520395713775	1.8763583035001203	-0.396996235138556	-0.28184923517982957	1.872123525017801	-0.3315643222621923	-0.2699988300807955	1.7214142670663697	-0.31799250820934855	-0.29745423752464867	1.5782650374598286	-0.25883824132417516	-0.2748930156280597	1.5427655090597683	-0.2801838076980751	-0.5374297398285915	1.5146074321950274	-0.9377255263477873	-0.3098824674137329	1.5658934218505027	-0.25286950800207164	-0.26373030657790686	1.8800986318128206	-0.47075433774689746	-0.2628093732636972	1.730995396786466	-0.5060638281505829	-0.2690316573679422	1.5981899249445177	-0.5484656950281341	-0.23760180534527847	1.5669366777085847	-0.6137255308828726	-0.24087280845227366	1.5808346401669602	-0.6291746155377017	-0.27893407576284607	1.5881318496497105	-0.5331537498034465	-0.2780563166854232	2.038962356818024	-0.4103972623237469	-0.2529853659078784	2.1092984606036214	-0.44155153284792936	-0.2914116717097642	2.039494680386266	-0.3149226186833573	-0.2819697717980056	1.9705821371566465	-0.25469170612868225	-0.2518630679999116	2.0163321124846583	-0.28547076690480905	-0.2628649835046599	2.039570054547633	-0.5013146033577344	-0.2505909230188413	1.9699543842683553	-0.5564341653420498	-0.20942235528397876	2.030765592690037	-0.6101245139392987
70	2.3333333333333335	-0.2754449423758516	1.875371878413969	-0.39909753390193126	-0.28296711641196065	1.8735742437852017	-0.3352006942305903	-0.27225267874298287	1.725002028928449	-0.3160965971086597	-0.29751602926528614	1.5787034351891138	-0.2589315313383366	-0.2747907481882089	1.539758103720021	-0.2798582117526062	-0.5394519071141866	1.514977016730321	-0.9344161099655794	-0.3094622132694179	1.5681877769451587	-0.25389261733952173	-0.26471465176536974	1.880175396755087	-0.4739553546921675	-0.2628196557848038	1.7370998918315053	-0.5068041259611742	-0.26700856902081005	1.5987230014951428	-0.5506542007651113	-0.23648655903081625	1.5694245107089704	-0.6108683874585521	-0.24106088062585856	1.5820321138285376	-0.6291313238858458	-0.2791709845380125	1.5896761228439655	-0.5331978531854721	-0.2761609228588463	2.04039485669263	-0.4131575395116358	-0.2538129229086063	2.110696495394028	-0.4445563579839342	-0.28664204466934917	2.0394036940479454	-0.316088800496548	-0.28190408028349584	1.962701421201088	-0.252890108568762	-0.25048907154205274	1.9744258494694644	-0.2704943761730058	-0.26382323830030713	2.0410533946086917	-0.5048447893410007	-0.2518918779708305	1.965224402903199	-0.5591871663247652	-0.2090658679205117	1.9982674770430933	-0.6270620196817376
71	2.3666666666666667	-0.27462891100660486	1.8754874475049448	-0.40458717588656784	-0.2834213359730738	1.8737406887266692	-0.3438801777587252	-0.27808146472390943	1.7200239787769138	-0.3181562788500169	-0.2975239299619509	1.5789579432796703	-0.2588745677811308	-0.2735751218828521	1.5421263359492374	-0.27686604605851145	-0.5393648357122787	1.5166531991363152	-0.9341683706027502	-0.30967653561427605	1.5673417469749835	-0.25331235775287336	-0.2656417651079866	1.8788427289670033	-0.4769950922240672	-0.26234700598337934	1.7331635861949561	-0.5026510712171925	-0.26913192738568936	1.5988825700130802	-0.5484508591624503	-0.23784848220825916	1.5682372048756983	-0.6136947447240924	-0.24111552691155275	1.5821464055883359	-0.6290510794133539	-0.2794189700106326	1.590727716977233	-0.5331447316017937	-0.27533231454040824	2.0405455646449804	-0.41841350562072926	-0.2527997722655502	2.1122220569967687	-0.4495592756735274	-0.28424532768238653	2.0370348698408414	-0.32292251362592683	-0.27574000912852303	1.9596843115048972	-0.26985599533198595	-0.24911507508419384	1.9325195864542706	-0.2555179854412025	-0.2628559362918934	2.0423196109635646	-0.5100745483491136	-0.24752620083611726	1.9615271016770868	-0.5709667422025659	-0.2076033618065296	1.9494515495455487	-0.6274961053275535
72	2.4	-0.26762307993026657	1.8807798174064334	-0.417086479918414	-0.2813062454639819	1.8775491454456585	-0.34680528265085125	-0.2807155456335818	1.725527885994574	-0.31128387645206756	-0.2977522447555305	1.5801614633044256	-0.25869257835928566	-0.2747852470598885	1.5422822339460611	-0.280251497228066	-0.5392960864607843	1.517032790025999	-0.9342096552008687	-0.3099272283593348	1.568794578134207	-0.2531712533322946	-0.26326746815791463	1.8850868746308274	-0.4803417216835475	-0.2625684441930327	1.7353471474106026	-0.5068626441013199	-0.2700314586138136	1.5983343154287764	-0.5515327405204496	-0.2376012285780897	1.567253566356801	-0.6137704014582973	-0.24092211574925892	1.5813240634922534	-0.6291530795930368	-0.27954054884714574	1.5915455061537886	-0.5329264525423296	-0.2695540264817015	2.04097098730444	-0.42496978935966906	-0.24306933904674585	2.1174135384087887	-0.46126880798824693	-0.28166266344750085	2.0389553197650927	-0.33090729468120905	-0.27797899226740225	1.954937286708285	-0.28160726629596783	-0.2600563684189485	1.9038154917720025	-0.24962073063893458	-0.25482229573990434	2.0430967295043394	-0.5195203655371798	-0.25004176955553603	1.9648777011859189	-0.5701908565756414	-0.23933014538657954	1.9001272867875536	-0.6200200940723681
73	2.433333333333333	-0.2679064373090589	1.881156748782822	-0.4173903956168953	-0.28147742991718905	1.879101185529964	-0.34719080444401385	-0.2847223740322939	1.726473509945628	-0.31636652279947725	-0.2972805361998656	1.5795771129122713	-0.25934123928620556	-0.2751173283060948	1.5420209880424844	-0.2798133374329341	-0.5425436218819194	1.515671388285419	-0.9330854255973999	-0.309386626542475	1.5709269152420327	-0.2541679298820842	-0.2616981923252572	1.8829279813285684	-0.48230995037064667	-0.26317990496347293	1.7346991165767782	-0.5062447762388107	-0.2680304262321688	1.5989081182246947	-0.5537032131639791	-0.2371755932837434	1.5697686884406128	-0.610271233786532	-0.24117928729722857	1.5823753457962155	-0.6291756125182606	-0.2793435176808401	1.5933795097708934	-0.5334676836310346	-0.26479425556470654	2.04371223920408	-0.4350743727554686	-0.24203705218906113	2.120978320033847	-0.46683253115010936	-0.2789897463413543	2.0403459132440225	-0.33823773417873265	-0.28014521073089216	1.953879397422786	-0.28775364056911273	-0.27099766175370316	1.8751113970897346	-0.24372347583666665	-0.2507144933070286	2.044415649624246	-0.5322583713399179	-0.25410488698612405	1.9632843921661733	-0.5653948754810916	-0.23973618434933375	1.8957557979602138	-0.6105387365960536
74	2.466666666666667	-0.26814301100959104	1.8831244679050783	-0.4206070571941473	-0.2806306597961305	1.8789828373479585	-0.34681396111278	-0.28517790896695827	1.727249092154406	-0.3205960397246374	-0.2987010823978342	1.5803368865490428	-0.2575326095551031	-0.2754494095523011	1.5417597421389078	-0.2793751776378022	-0.5436728865145418	1.5168940968467644	-0.9267315015265124	-0.30889204136525267	1.5708041163465898	-0.2545233832240037	-0.2618269904091401	1.8846239262432283	-0.4855939120087063	-0.2630626896677779	1.7398061405151495	-0.511099282782726	-0.26869702604813395	1.5993801472521056	-0.5490005763329742	-0.23753216304863317	1.566540491907709	-0.613732089529666	-0.24089934480314323	1.5807356012715927	-0.6291542809494813	-0.2790947378014347	1.591973134255169	-0.5337110833710735	-0.2639040414952894	2.042315588771972	-0.43990773628305757	-0.2428736323711853	2.122426981685695	-0.4706225711365487	-0.2764444439182929	2.0405394280575786	-0.34564373013949135	-0.2822507496804989	1.9489838674953581	-0.2929501987250954	-0.27534065504413757	1.8683300309600188	-0.25025498354810394	-0.2495053847564893	2.046753484794758	-0.5374289114620175	-0.2549969436741337	1.9613043101175904	-0.5593391755400539	-0.2456270942083319	1.8927938854292066	-0.6029754895444374
75	2.5	-0.2703873255508873	1.8836945110204724	-0.42750619761088776	-0.2783333885503291	1.8809850559918515	-0.3549766353190783	-0.28777955062787086	1.7274530166305395	-0.3221041098387112	-0.2990822072336943	1.5799680152071691	-0.25720543993105754	-0.2757814907985074	1.541498496235331	-0.2789370178426702	-0.5394743760225236	1.5160594911825318	-0.9340527245197412	-0.3112280787315301	1.571371988714059	-0.2518881705042664	-0.25700675115547494	1.8866594677860045	-0.49573918304471104	-0.2617873302871121	1.737926276565549	-0.5080711291377493	-0.2699032536421196	1.6009053318581572	-0.5518799252655825	-0.23854497247486958	1.5670089224416832	-0.6170198087151807	-0.24181982949999006	1.5809795739035917	-0.6323797947422501	-0.2793708374259699	1.5934656283963198	-0.5334788004509398	-0.2629157914580859	2.0448630052742858	-0.445658343791569	-0.24101545734116397	2.122525622034918	-0.47296955494884907	-0.27284221161515854	2.0405029821421072	-0.349951324315589	-0.28387370216067487	1.9497337470366711	-0.3049657267618529	-0.27922446576348486	1.865633831506217	-0.27409951252866277	-0.2494547608267268	2.047104306696743	-0.5457172180961255	-0.2507851111274669	1.9590722124340658	-0.5718821827864262	-0.24769124780031454	1.8869538917510158	-0.6000305607810145
76	2.533333333333333	-0.26953860563315	1.8820524189020276	-0.43266544217903646	-0.27548528624649665	1.878082406752328	-0.3619858541805522	-0.2876850491393641	1.7296031257247535	-0.32243438427472826	-0.2987117442462076	1.5803827402819028	-0.25762492304000356	-0.2761135720447137	1.5412372503317544	-0.2784988580475383	-0.5427679516581212	1.5171936195943567	-0.9251365128468289	-0.3071420457823297	1.573989754595425	-0.25693940231407375	-0.2568875762156755	1.8855223521289395	-0.5041350992721306	-0.2631648765536323	1.7383733414405247	-0.5110837510692241	-0.2699526557178735	1.598056908948932	-0.5516051761335988	-0.23469673525282353	1.5680641759964842	-0.6123656672056923	-0.2406660797329176	1.5800089992022737	-0.6290736985906197	-0.27876133103098627	1.5869995068120537	-0.5334610018239073	-0.2620796302973468	2.0464089001995944	-0.4514138326380853	-0.24006888057776424	2.1242129002496797	-0.4788417622165803	-0.2737962654115595	2.0428711538221807	-0.3537407726814137	-0.28402643237848174	1.9525093135655296	-0.3139311818234348	-0.27629922743607294	1.8726257698862145	-0.2861464353650404	-0.24941747965346248	2.0484684108186832	-0.5464188506101949	-0.2507798947551894	1.9615521748195142	-0.5724230776000684	-0.2497300167684592	1.8895640391537816	-0.5981899013832973
